<svg xmlns="http://www.w3.org/2000/svg" width="23.995" height="20.279" viewBox="0 0 23.995 20.279">
  <path id="Path_2" data-name="Path 2" d="M19.252,17.137a1.572,1.572,0,1,0,1.742,1.339,1.567,1.567,0,0,0-1.742-1.339ZM.389.037a.537.537,0,0,0-.3.808c.188.313.613.255,1.06.255a2.3,2.3,0,0,1,1.79.828,4.667,4.667,0,0,1,.734,1.886l1.676,6.193c.369,1.37.724,2.767,1.119,4.126a3.429,3.429,0,0,0,2.808,2.4c.569.073,4.339.026,5.238.026H19.76a3.46,3.46,0,0,0,2.1-.536A3.391,3.391,0,0,0,23.1,14.64c.132-.273.325-.686.132-1a.56.56,0,0,0-.882-.042,2.863,2.863,0,0,1-1.111,1.511,3.876,3.876,0,0,1-2.28.344H11.094a5.381,5.381,0,0,1-2.384-.241,2.332,2.332,0,0,1-1.2-1.422c-.755-2.745-1.487-5.478-2.228-8.229C5.1,4.874,4.905,4.2,4.724,3.5,4.378,2.169,4.1,1.035,2.643.338a3.337,3.337,0,0,0-1-.307A4.809,4.809,0,0,0,.389.037ZM6.435,3.746a.844.844,0,0,0-.641,1.115c.346,1.382.8,2.936,1.173,4.329l1.168,4.3a1.619,1.619,0,0,0,.782,1.067,2.922,2.922,0,0,0,1.6.214H19.7a1.8,1.8,0,0,0,1.408-.406c.42-.386.438-.567.62-1.234l.258-.943-.026.1h-11.4L9.5,8.214h0V8.2L9.167,6.911l.009,0L9,6.2H21.114l-.5,2-9.025.016.531,2.056h10.39q.4-1.45.781-2.9A21.175,21.175,0,0,0,24,4.46c-.068-.592-.543-.744-1.073-.742H8.249a14.619,14.619,0,0,0-1.813.027ZM10.112,17.14a1.572,1.572,0,1,0,1.768,1.3,1.569,1.569,0,0,0-1.768-1.3Z" transform="translate(-0.007 0.008)" fill="#7d7d7d" fill-rule="evenodd"/>
</svg>
