<svg xmlns="http://www.w3.org/2000/svg" width="140.758" height="35.925" viewBox="0 0 140.758 35.925">
  <g id="Group_56" data-name="Group 56" transform="translate(-890 -17)">
    <g id="Group_55" data-name="Group 55">
      <path id="Path_1" data-name="Path 1" d="M416.087,81.187a3.565,3.565,0,0,0,1.024,2.288,3.515,3.515,0,0,0,2.432.752,8.448,8.448,0,0,0,2.256-.272,18.327,18.327,0,0,0,2.064-.72,3.5,3.5,0,0,1,.688,1.552,10.233,10.233,0,0,1,.176,1.936,8.522,8.522,0,0,1-1.264.464q-.72.208-1.488.352t-1.536.224a13.282,13.282,0,0,1-1.375.08,10.312,10.312,0,0,1-3.344-.48,6.135,6.135,0,0,1-2.3-1.36,5.33,5.33,0,0,1-1.344-2.144,8.622,8.622,0,0,1-.432-2.8,11.371,11.371,0,0,1,.672-3.84,11.066,11.066,0,0,1,1.9-3.376,9.495,9.495,0,0,1,3.008-2.4,8.6,8.6,0,0,1,3.984-.912,7.248,7.248,0,0,1,1.968.256,4.5,4.5,0,0,1,1.583.783,3.763,3.763,0,0,1,1.056,1.3,3.966,3.966,0,0,1,.384,1.792,4.55,4.55,0,0,1-.672,2.5,5.985,5.985,0,0,1-1.792,1.792,10.533,10.533,0,0,1-2.544,1.2,17.916,17.916,0,0,1-2.96.688l-2.144.352Zm1.824-3.264a9.575,9.575,0,0,0,1.984-.5,4.579,4.579,0,0,0,1.216-.672,1.869,1.869,0,0,0,.768-1.52,1.314,1.314,0,0,0-.4-.992,1.485,1.485,0,0,0-1.072-.384,3.176,3.176,0,0,0-1.52.368,4.045,4.045,0,0,0-1.2.976,6.308,6.308,0,0,0-.88,1.392,8.29,8.29,0,0,0-.56,1.584l1.664-.256Zm10.2.1q.352-2.017.528-3.568a23.011,23.011,0,0,0,.176-2.416v-.592a4.7,4.7,0,0,0-.032-.528,11.749,11.749,0,0,1,2.112-.191q.48,0,.96.048t1.024.144q.064.256.128.608a6.43,6.43,0,0,1,.064,1.056c0,.191-.005.384-.016.576s-.037.426-.08.7a6.923,6.923,0,0,1,.8-1.136,6.828,6.828,0,0,1,1.072-1.008,5.219,5.219,0,0,1,1.312-.72,4.454,4.454,0,0,1,1.583-.272,3.662,3.662,0,0,1,1.152.16,1.03,1.03,0,0,1,.032.256v.288a8.171,8.171,0,0,1-.224,1.856,5.575,5.575,0,0,1-.607,1.6c-.128-.022-.267-.042-.416-.064a4.152,4.152,0,0,0-.577-.032,4.6,4.6,0,0,0-2.16.448,3.774,3.774,0,0,0-1.392,1.264,6.825,6.825,0,0,0-.864,1.967q-.32,1.152-.576,2.559l-1.184,6.432a15.362,15.362,0,0,1-2.336.191,12.741,12.741,0,0,1-2.208-.191l1.728-9.44Zm16.029,9.824a6.2,6.2,0,0,1-4.848-1.728,6.828,6.828,0,0,1-1.552-4.736,13.466,13.466,0,0,1,.577-3.856,11.123,11.123,0,0,1,1.728-3.488,9.083,9.083,0,0,1,2.9-2.528,8.213,8.213,0,0,1,4.08-.976q3.328,0,4.88,1.759a6.952,6.952,0,0,1,1.552,4.768,13.863,13.863,0,0,1-.56,3.9,10.7,10.7,0,0,1-1.712,3.456,8.764,8.764,0,0,1-2.912,2.48,8.608,8.608,0,0,1-4.128.944Zm.416-3.456a2.907,2.907,0,0,0,2.048-.768,5.988,5.988,0,0,0,1.36-1.9,9.717,9.717,0,0,0,.752-2.4,13.248,13.248,0,0,0,.224-2.288q0-2.943-2.4-2.943a2.735,2.735,0,0,0-2.016.8,6.408,6.408,0,0,0-1.312,1.952,9.838,9.838,0,0,0-.72,2.432,14.332,14.332,0,0,0-.208,2.272q0,2.847,2.272,2.848Zm20.54-.864a5.468,5.468,0,0,1,.576,1.375,8.1,8.1,0,0,1,.224,2.112,9.114,9.114,0,0,1-2.176.64,15.379,15.379,0,0,1-2.528.193q-3.648,0-5.344-1.776a6.778,6.778,0,0,1-1.7-4.88,12.12,12.12,0,0,1,.624-3.792,10.839,10.839,0,0,1,1.84-3.424,9.667,9.667,0,0,1,2.992-2.48,8.518,8.518,0,0,1,4.112-.96,13.679,13.679,0,0,1,2.112.16,9.692,9.692,0,0,1,1.952.512,7.992,7.992,0,0,1-.288,1.776,6.669,6.669,0,0,1-.8,1.808,9.2,9.2,0,0,0-1.392-.448,6.72,6.72,0,0,0-1.52-.16,4.123,4.123,0,0,0-2.176.56,4.991,4.991,0,0,0-1.552,1.472,6.565,6.565,0,0,0-.928,2.1,9.864,9.864,0,0,0-.3,2.464,3.379,3.379,0,0,0,.9,2.592,3.208,3.208,0,0,0,2.272.832,7.548,7.548,0,0,0,1.392-.128,9.2,9.2,0,0,0,1.712-.544Zm6.813-2.336a3.565,3.565,0,0,0,1.024,2.288,3.515,3.515,0,0,0,2.432.752,8.448,8.448,0,0,0,2.256-.272,18.329,18.329,0,0,0,2.064-.72,3.5,3.5,0,0,1,.688,1.552,10.238,10.238,0,0,1,.176,1.936,8.521,8.521,0,0,1-1.264.464q-.72.208-1.488.352t-1.536.224a13.282,13.282,0,0,1-1.375.08,10.312,10.312,0,0,1-3.344-.48,6.134,6.134,0,0,1-2.3-1.36,5.329,5.329,0,0,1-1.344-2.144,8.622,8.622,0,0,1-.432-2.8,11.371,11.371,0,0,1,.672-3.84,11.066,11.066,0,0,1,1.9-3.376,9.494,9.494,0,0,1,3.008-2.4,8.6,8.6,0,0,1,3.984-.912,7.247,7.247,0,0,1,1.967.256,4.5,4.5,0,0,1,1.584.783,3.764,3.764,0,0,1,1.056,1.3,3.965,3.965,0,0,1,.384,1.792,4.55,4.55,0,0,1-.672,2.5,5.984,5.984,0,0,1-1.792,1.792,10.532,10.532,0,0,1-2.544,1.2,17.916,17.916,0,0,1-2.96.688l-2.144.352Zm1.824-3.264a9.576,9.576,0,0,0,1.984-.5,4.579,4.579,0,0,0,1.216-.672,1.868,1.868,0,0,0,.768-1.52,1.314,1.314,0,0,0-.4-.992,1.486,1.486,0,0,0-1.072-.384,3.176,3.176,0,0,0-1.52.368,4.045,4.045,0,0,0-1.2.976,6.306,6.306,0,0,0-.88,1.392,8.29,8.29,0,0,0-.56,1.584l1.664-.256Zm10.2.1q.352-2.017.528-3.568a23,23,0,0,0,.176-2.416v-.592a4.687,4.687,0,0,0-.032-.528,11.749,11.749,0,0,1,2.112-.191q.48,0,.96.048t1.024.144q.064.256.128.608a6.422,6.422,0,0,1,.064,1.056c0,.191-.005.384-.016.576s-.037.426-.08.7a6.928,6.928,0,0,1,.8-1.136,6.828,6.828,0,0,1,1.072-1.008,5.218,5.218,0,0,1,1.312-.72,4.454,4.454,0,0,1,1.584-.272,3.661,3.661,0,0,1,1.152.16,1.03,1.03,0,0,1,.032.256v.288a8.171,8.171,0,0,1-.224,1.856,5.573,5.573,0,0,1-.607,1.6c-.128-.022-.267-.042-.416-.064a4.153,4.153,0,0,0-.576-.032,4.6,4.6,0,0,0-2.16.448,3.774,3.774,0,0,0-1.392,1.264,6.825,6.825,0,0,0-.864,1.967q-.32,1.152-.576,2.56l-1.184,6.432a15.362,15.362,0,0,1-2.336.191,12.741,12.741,0,0,1-2.208-.191l1.728-9.44Zm10.4-7.1a15.341,15.341,0,0,1,2.464-.191,13.3,13.3,0,0,1,2.24.191l.864,14.464q1.248-2.624,2.1-4.56t1.424-3.327q.576-1.393.88-2.32t.464-1.568a6.618,6.618,0,0,0,.193-1.072q.033-.432.032-.816a2.617,2.617,0,0,0-.032-.48c-.022-.107-.042-.213-.064-.32q.543-.1,1.152-.144t1.248-.048a14.3,14.3,0,0,1,2.4.191,2.125,2.125,0,0,1,.1.672,5.613,5.613,0,0,1-.144,1.2q-.144.657-.352,1.312t-.448,1.264q-.241.609-.432,1.088-.832,1.984-2.32,5.072t-3.824,7.823a17.572,17.572,0,0,1-1.952,3.168,7.862,7.862,0,0,1-1.952,1.792,5.713,5.713,0,0,1-1.984.785,11.554,11.554,0,0,1-2.016.176,7.156,7.156,0,0,1-1.264-.1,11.137,11.137,0,0,1-1.168-.288,11.294,11.294,0,0,1,.256-1.759,5.741,5.741,0,0,1,.64-1.6,3.336,3.336,0,0,0,.688.208,3.546,3.546,0,0,0,.688.08,5.974,5.974,0,0,0,.9-.08,2.791,2.791,0,0,0,1.1-.48,5.989,5.989,0,0,0,1.248-1.216,11.221,11.221,0,0,0,1.328-2.256l.16-.352a5.475,5.475,0,0,1-.768.08q-.416.016-.864.016h-.736a3.8,3.8,0,0,1-.736-.064l-1.5-16.544Z" transform="translate(520.963 -46.229)" fill="#343434"/>
      <path id="Path_2" data-name="Path 2" d="M34.1,30.365a2.785,2.785,0,1,0,3.086,2.372A2.775,2.775,0,0,0,34.1,30.365ZM.683.072A.952.952,0,0,0,.154,1.5c.332.555,1.087.451,1.878.451A4.07,4.07,0,0,1,5.2,3.421,8.268,8.268,0,0,1,6.5,6.763L9.473,17.734c.654,2.427,1.282,4.9,1.983,7.309a6.074,6.074,0,0,0,4.974,4.244c1.008.129,7.687.046,9.28.046H35a6.129,6.129,0,0,0,3.717-.95,6.008,6.008,0,0,0,2.2-2.44c.234-.483.575-1.216.234-1.764a.991.991,0,0,0-1.563-.075,5.072,5.072,0,0,1-1.967,2.676c-1.239.78-2.428.609-4.04.609H19.649c-1.5,0-3,.186-4.223-.426A4.131,4.131,0,0,1,13.3,24.443c-1.338-4.863-2.634-9.7-3.947-14.578-.329-1.224-.671-2.418-.992-3.653C7.751,3.848,7.265,1.839,4.677.6A5.911,5.911,0,0,0,2.9.06,8.519,8.519,0,0,0,.683.071Zm10.711,6.57a1.5,1.5,0,0,0-1.135,1.976c.613,2.449,1.419,5.2,2.078,7.669l2.07,7.622A2.868,2.868,0,0,0,15.793,25.8a5.176,5.176,0,0,0,2.836.379H34.887a3.187,3.187,0,0,0,2.494-.719c.744-.684.776-1,1.1-2.187q.228-.837.456-1.67l-.047.17H18.7l-1.864-7.214h-.008l0-.024-.59-2.284.017-.005-.316-1.256H37.4l-.89,3.543-15.989.028L21.46,18.2H39.868q.7-2.569,1.383-5.135a37.512,37.512,0,0,0,1.263-5.159c-.12-1.048-.961-1.318-1.9-1.314h-26a25.9,25.9,0,0,0-3.213.048Zm6.515,23.73a2.785,2.785,0,1,0,3.132,2.308,2.78,2.78,0,0,0-3.132-2.308Z" transform="translate(889.993 17.008)" fill="#4cbe42" fill-rule="evenodd"/>
      <path id="Path_3" data-name="Path 3" d="M471.651,257.156a2.523,2.523,0,0,1-.29.445,2.474,2.474,0,0,1-.42.411,2.283,2.283,0,0,1-.535.305,1.678,1.678,0,0,1-.635.12,1.177,1.177,0,0,1-1-.436,1.9,1.9,0,0,1-.335-1.186,4.436,4.436,0,0,1,.22-1.386,3.67,3.67,0,0,1,.651-1.2,3.215,3.215,0,0,1,1.071-.846,3.3,3.3,0,0,1,1.491-.32,5.139,5.139,0,0,1,.736.055,3.351,3.351,0,0,1,.655.155q-.23,1.261-.445,2.5t-.445,2.5a3.369,3.369,0,0,1-.4,1.151,2.518,2.518,0,0,1-.69.766,2.769,2.769,0,0,1-.93.431,4.446,4.446,0,0,1-1.121.136,3.89,3.89,0,0,1-.681-.06,2.825,2.825,0,0,1-.561-.15,1.668,1.668,0,0,1,.22-.8c.133.033.29.068.471.106a3,3,0,0,0,.591.055,3.233,3.233,0,0,0,.8-.09,1.684,1.684,0,0,0,.621-.3,1.731,1.731,0,0,0,.455-.551,3.2,3.2,0,0,0,.295-.851l.21-.96Zm.521-3.2a2.218,2.218,0,0,0-.54-.06,1.774,1.774,0,0,0-.9.23,2.182,2.182,0,0,0-.681.616,3.036,3.036,0,0,0-.436.87,3.248,3.248,0,0,0-.155,1,1.316,1.316,0,0,0,.18.745.58.58,0,0,0,.51.265,1.036,1.036,0,0,0,.605-.2,2.07,2.07,0,0,0,.521-.551,3.892,3.892,0,0,0,.411-.826,6.839,6.839,0,0,0,.286-1.026l.2-1.061Zm1.286,4.365q.11-.63.245-1.331t.25-1.356q.115-.655.2-1.2a6.22,6.22,0,0,0,.08-.866c0-.087,0-.155-.005-.2a1.637,1.637,0,0,0-.025-.185,1.665,1.665,0,0,1,.24-.025c.087,0,.167-.005.24-.005s.142,0,.226.005a1.418,1.418,0,0,1,.226.025,1.2,1.2,0,0,1,.03.175c.006.063.01.152.01.265a3.393,3.393,0,0,1-.03.45,3.1,3.1,0,0,1,.286-.34,2.18,2.18,0,0,1,.346-.29,1.615,1.615,0,0,1,.42-.2,1.65,1.65,0,0,1,.51-.076,1.532,1.532,0,0,1,.175.01.723.723,0,0,1,.155.03,2.651,2.651,0,0,1-.046.455,1.244,1.244,0,0,1-.155.436,1.115,1.115,0,0,0-.125-.02,1.524,1.524,0,0,0-.166-.01,1.367,1.367,0,0,0-1.086.48,3.091,3.091,0,0,0-.6,1.481l-.411,2.3a2.952,2.952,0,0,1-.411.03h-.25l-.33-.03Zm5.13.12a1.8,1.8,0,0,1-1.4-.515,2.083,2.083,0,0,1-.471-1.456,4.3,4.3,0,0,1,.17-1.156,3.5,3.5,0,0,1,.526-1.1,3,3,0,0,1,.891-.821,2.387,2.387,0,0,1,1.266-.325,1.809,1.809,0,0,1,1.412.521,2.1,2.1,0,0,1,.471,1.461,4.279,4.279,0,0,1-.17,1.161,3.565,3.565,0,0,1-.521,1.1,2.867,2.867,0,0,1-.891.816A2.471,2.471,0,0,1,478.588,258.437Zm.1-.791a1.29,1.29,0,0,0,.806-.256,1.962,1.962,0,0,0,.545-.646,3.276,3.276,0,0,0,.311-.846,4.028,4.028,0,0,0,.1-.856,1.3,1.3,0,0,0-.256-.87.9.9,0,0,0-.726-.3,1.259,1.259,0,0,0-.8.26,2.05,2.05,0,0,0-.54.651,3.121,3.121,0,0,0-.305.846,4.171,4.171,0,0,0-.1.846,1.344,1.344,0,0,0,.245.87.871.871,0,0,0,.715.3Zm6.451-.23a1.212,1.212,0,0,1,.125.335,1.988,1.988,0,0,1,.046.445,3,3,0,0,1-.671.18,4.419,4.419,0,0,1-.69.06,2.164,2.164,0,0,1-1.622-.54,2.09,2.09,0,0,1-.521-1.511,3.815,3.815,0,0,1,.2-1.2,3.338,3.338,0,0,1,.581-1.071,2.962,2.962,0,0,1,.941-.766,2.716,2.716,0,0,1,1.276-.29,3.177,3.177,0,0,1,.63.06,3.76,3.76,0,0,1,.521.14,1.685,1.685,0,0,1-.08.415,1.6,1.6,0,0,1-.18.4,3.037,3.037,0,0,0-.436-.136,2.2,2.2,0,0,0-.5-.055,1.624,1.624,0,0,0-.851.215,1.919,1.919,0,0,0-.6.561,2.439,2.439,0,0,0-.355.776,3.285,3.285,0,0,0-.115.851,1.347,1.347,0,0,0,.335,1.006,1.272,1.272,0,0,0,.926.325,2.952,2.952,0,0,0,.515-.046,2.589,2.589,0,0,0,.526-.155Zm1.767-1.142a1.562,1.562,0,0,0,.341,1.011,1.239,1.239,0,0,0,.96.341,2.98,2.98,0,0,0,.761-.1,6.5,6.5,0,0,0,.651-.2,1.105,1.105,0,0,1,.13.36,2.227,2.227,0,0,1,.04.42,2.441,2.441,0,0,1-.365.13q-.216.061-.45.106c-.157.03-.316.054-.475.07a4.325,4.325,0,0,1-.441.025,2.8,2.8,0,0,1-1-.155,1.724,1.724,0,0,1-.66-.431,1.657,1.657,0,0,1-.37-.651,2.778,2.778,0,0,1-.115-.816,3.679,3.679,0,0,1,.2-1.206,3.407,3.407,0,0,1,.591-1.066,3.069,3.069,0,0,1,.921-.761,2.468,2.468,0,0,1,1.2-.29,1.574,1.574,0,0,1,1.046.325,1.077,1.077,0,0,1,.385.866,1.354,1.354,0,0,1-.215.766,1.847,1.847,0,0,1-.6.556,3.761,3.761,0,0,1-.9.381,8.392,8.392,0,0,1-1.126.24l-.521.08Zm.63-.84a5.742,5.742,0,0,0,.846-.2,2.3,2.3,0,0,0,.535-.25.838.838,0,0,0,.28-.286.686.686,0,0,0,.08-.33.486.486,0,0,0-.16-.376.664.664,0,0,0-.461-.145,1.237,1.237,0,0,0-.591.145,1.838,1.838,0,0,0-.485.381,2.317,2.317,0,0,0-.365.54,3.1,3.1,0,0,0-.23.625l.551-.1Zm2.828,2.882q.11-.63.245-1.331t.25-1.356q.115-.655.2-1.2a6.212,6.212,0,0,0,.08-.866c0-.087,0-.155-.005-.2a1.637,1.637,0,0,0-.025-.185,1.664,1.664,0,0,1,.24-.025c.087,0,.167-.005.24-.005s.142,0,.226.005a1.42,1.42,0,0,1,.226.025,1.211,1.211,0,0,1,.03.175c.006.063.01.152.01.265a3.393,3.393,0,0,1-.03.45,3.081,3.081,0,0,1,.286-.34,2.18,2.18,0,0,1,.346-.29,1.615,1.615,0,0,1,.42-.2,1.65,1.65,0,0,1,.51-.076,1.532,1.532,0,0,1,.175.01.723.723,0,0,1,.155.03,2.651,2.651,0,0,1-.046.455,1.245,1.245,0,0,1-.155.436,1.115,1.115,0,0,0-.125-.02,1.525,1.525,0,0,0-.166-.01,1.367,1.367,0,0,0-1.086.48,3.092,3.092,0,0,0-.6,1.481l-.411,2.3a2.953,2.953,0,0,1-.411.03h-.25l-.33-.03Zm4.97-.5q.32-.691.57-1.262t.455-1.051q.2-.481.371-.881c.11-.267.212-.521.305-.761a1.934,1.934,0,0,0,.09-.311,1.311,1.311,0,0,0,.03-.23.518.518,0,0,0-.005-.08.4.4,0,0,1-.005-.06,2.744,2.744,0,0,1,.42-.03h.63a.361.361,0,0,1,.01.08v.08a1.545,1.545,0,0,1-.1.521c-.066.187-.14.374-.221.561q-.45.97-.966,2.077t-1.156,2.448a6.279,6.279,0,0,1-.54.951,2.8,2.8,0,0,1-.515.561,1.441,1.441,0,0,1-.515.27,2.158,2.158,0,0,1-.561.07,2.32,2.32,0,0,1-.681-.1,2.109,2.109,0,0,1,.06-.42.979.979,0,0,1,.16-.35,1.792,1.792,0,0,0,.22.055,1.288,1.288,0,0,0,.24.025,1.144,1.144,0,0,0,.31-.046.818.818,0,0,0,.335-.215,2.552,2.552,0,0,0,.376-.5,7.2,7.2,0,0,0,.441-.9,1.461,1.461,0,0,1-.17.01h-.33a.787.787,0,0,1-.14-.01q-.171-1.281-.335-2.563t-.335-2.572c.093-.013.178-.024.256-.03s.161-.01.256-.01.183,0,.27.01.174.017.26.03l.51,4.635Zm5.417-4.635c.093-.013.183-.024.27-.03s.177-.01.27-.01a3.034,3.034,0,0,1,.521.04l.39,3.984,1.6-3.984a2.206,2.206,0,0,1,.24-.03c.087-.006.167-.01.24-.01s.17,0,.25.01.16.017.24.03l.491,3.994,1.251-3.032a2.863,2.863,0,0,0,.166-.515,1.943,1.943,0,0,0,.045-.355v-.09c.08-.013.161-.024.245-.03s.172-.01.265-.01a3.243,3.243,0,0,1,.551.04v.04a1.416,1.416,0,0,1-.085.466,5.96,5.96,0,0,1-.265.616l-1.862,4.014c-.087.013-.178.024-.275.03s-.192.01-.286.01-.163,0-.25-.01a2.206,2.206,0,0,1-.24-.03l-.5-3.694-1.521,3.694c-.087.013-.178.024-.275.03s-.188.01-.275.01-.166,0-.256-.01a2.212,2.212,0,0,1-.245-.03l-.7-5.135Zm7.893.791h-.621a3.017,3.017,0,0,1,.025-.39,1.776,1.776,0,0,1,.106-.4h1.6l-.9,5.135a1.746,1.746,0,0,1-.256.025c-.1,0-.182.005-.256.005s-.15,0-.23-.005a1.614,1.614,0,0,1-.23-.025Zm-.01-1.852a2.934,2.934,0,0,1,.05-.551,5.337,5.337,0,0,1,.13-.531c.093-.013.194-.024.3-.03s.2-.01.28-.01.172,0,.275.01.2.017.286.03a3.654,3.654,0,0,1-.06.556,4.7,4.7,0,0,1-.13.526,2.648,2.648,0,0,1-.3.025c-.107,0-.2.005-.28.005s-.164,0-.27-.005A2.093,2.093,0,0,1,508.634,252.121Zm2.3,1.852h-.81a2.44,2.44,0,0,1,.03-.385,2.282,2.282,0,0,1,.11-.406h.8c.033-.174.063-.35.09-.531a3.8,3.8,0,0,0,.04-.561v-.16a1.786,1.786,0,0,1,.48-.15,2.817,2.817,0,0,1,.48-.05q.009.09.016.18c0,.06.005.123.005.19a4.706,4.706,0,0,1-.08.771l-.06.31h1.292a2.592,2.592,0,0,1-.03.406,2.26,2.26,0,0,1-.1.385h-1.281l-.39,2.172q-.05.23-.09.475a2.766,2.766,0,0,0-.04.445.486.486,0,0,0,.155.415.683.683,0,0,0,.415.115,1.781,1.781,0,0,0,.311-.025,2.752,2.752,0,0,0,.28-.065,1.848,1.848,0,0,1,.05.22,1.571,1.571,0,0,1,.02.26v.145a1.168,1.168,0,0,1-.01.155,2.735,2.735,0,0,1-.341.076,2.688,2.688,0,0,1-.45.035,3.514,3.514,0,0,1-.586-.046,1.181,1.181,0,0,1-.455-.17.83.83,0,0,1-.3-.34,1.293,1.293,0,0,1-.106-.565,2.492,2.492,0,0,1,.035-.406c.024-.144.049-.292.076-.445l.441-2.452Zm3.058-.93q.1-.56.16-.966a4.962,4.962,0,0,0,.06-.725c0-.08,0-.144-.005-.19s-.008-.107-.016-.18a2.248,2.248,0,0,1,.27-.03c.107-.006.2-.01.27-.01s.142,0,.226.01a1.837,1.837,0,0,1,.226.03,2.287,2.287,0,0,1,.03.371c0,.073-.005.161-.016.265s-.022.212-.035.325-.03.23-.05.35-.04.234-.06.341q-.07.34-.13.676c-.04.224-.08.449-.12.676a2.6,2.6,0,0,1,.72-.641,1.876,1.876,0,0,1,1-.27,1.355,1.355,0,0,1,.956.32,1.29,1.29,0,0,1,.346.99,2.975,2.975,0,0,1-.02.33q-.02.18-.05.36l-.57,3.243a1.745,1.745,0,0,1-.256.025c-.1,0-.182.005-.256.005s-.155,0-.245-.005a1.453,1.453,0,0,1-.235-.025q.14-.781.27-1.541t.27-1.541l.04-.3a1.993,1.993,0,0,0,.02-.26.709.709,0,0,0-.2-.561.767.767,0,0,0-.526-.18,1.213,1.213,0,0,0-.471.1,1.257,1.257,0,0,0-.455.346,2.519,2.519,0,0,0-.4.66,4.643,4.643,0,0,0-.29,1.046q-.11.571-.2,1.121c-.063.367-.128.737-.2,1.111a2.61,2.61,0,0,1-.29.025c-.1,0-.2.005-.29.005l-.18-.005a1.423,1.423,0,0,1-.23-.025l.93-5.275Zm7.729,3.233a1.562,1.562,0,0,0,.34,1.011,1.239,1.239,0,0,0,.961.341,2.981,2.981,0,0,0,.761-.1,6.5,6.5,0,0,0,.651-.2,1.1,1.1,0,0,1,.13.36,2.222,2.222,0,0,1,.04.42,2.445,2.445,0,0,1-.365.13q-.216.061-.45.106c-.157.03-.316.054-.475.07a4.326,4.326,0,0,1-.441.025,2.8,2.8,0,0,1-1-.155,1.723,1.723,0,0,1-.66-.431,1.658,1.658,0,0,1-.371-.651,2.778,2.778,0,0,1-.115-.816,3.681,3.681,0,0,1,.2-1.206,3.408,3.408,0,0,1,.591-1.066,3.068,3.068,0,0,1,.921-.761,2.468,2.468,0,0,1,1.2-.29,1.574,1.574,0,0,1,1.046.325,1.077,1.077,0,0,1,.385.866,1.353,1.353,0,0,1-.215.766,1.845,1.845,0,0,1-.6.556,3.76,3.76,0,0,1-.9.381,8.391,8.391,0,0,1-1.126.24l-.521.08Zm.63-.84a5.74,5.74,0,0,0,.846-.2,2.3,2.3,0,0,0,.535-.25.839.839,0,0,0,.28-.286.686.686,0,0,0,.08-.33.486.486,0,0,0-.16-.376.664.664,0,0,0-.461-.145,1.237,1.237,0,0,0-.591.145,1.837,1.837,0,0,0-.485.381,2.317,2.317,0,0,0-.365.54,3.092,3.092,0,0,0-.23.625l.551-.1Zm6.521-1.491a1.6,1.6,0,0,0-.25-.04c-.087-.006-.183-.01-.29-.01a1.753,1.753,0,0,0-.9.23,2.252,2.252,0,0,0-.681.616,2.887,2.887,0,0,0-.436.87,3.34,3.34,0,0,0-.15,1,1.381,1.381,0,0,0,.17.745.566.566,0,0,0,.51.265,1.043,1.043,0,0,0,.6-.2,2.077,2.077,0,0,0,.531-.556,3.8,3.8,0,0,0,.415-.831,6.215,6.215,0,0,0,.275-1.016l.2-1.071Zm.57,2.192q-.11.6-.175,1.031a5.1,5.1,0,0,0-.065.75c0,.087,0,.155.005.2a1.634,1.634,0,0,0,.025.185,2.2,2.2,0,0,1-.24.03c-.087.006-.167.01-.24.01s-.14,0-.22-.01a2.207,2.207,0,0,1-.23-.03,2.248,2.248,0,0,1-.03-.226c-.006-.077-.01-.172-.01-.286a2.449,2.449,0,0,1,.025-.3c.017-.127.035-.24.055-.341a2.515,2.515,0,0,1-.29.445,2.6,2.6,0,0,1-.415.411,2.154,2.154,0,0,1-.531.305,1.677,1.677,0,0,1-.635.12,1.176,1.176,0,0,1-1-.436,1.9,1.9,0,0,1-.335-1.186,4.436,4.436,0,0,1,.22-1.386,3.67,3.67,0,0,1,.651-1.2,3.216,3.216,0,0,1,1.071-.846,3.3,3.3,0,0,1,1.491-.32,4.924,4.924,0,0,1,.726.055,3.4,3.4,0,0,1,.646.155l-.5,2.863Zm2.088-.23a3.448,3.448,0,0,1-.321-.15,1.284,1.284,0,0,1-.31-.23,1.158,1.158,0,0,1-.235-.355,1.277,1.277,0,0,1-.1-.515,1.441,1.441,0,0,1,.15-.665,1.458,1.458,0,0,1,.42-.5,1.98,1.98,0,0,1,.646-.316,2.964,2.964,0,0,1,.836-.11,3.29,3.29,0,0,1,.78.09,2.6,2.6,0,0,1,.581.2,2.493,2.493,0,0,1-.29.75,3.158,3.158,0,0,0-.471-.166,2.33,2.33,0,0,0-.641-.085,1.519,1.519,0,0,0-.715.15.538.538,0,0,0-.286.521.566.566,0,0,0,.136.385,1.273,1.273,0,0,0,.485.295l.22.1c.126.06.259.123.4.19a1.646,1.646,0,0,1,.37.245,1.169,1.169,0,0,1,.27.351,1.1,1.1,0,0,1,.106.505,1.769,1.769,0,0,1-.18.826,1.606,1.606,0,0,1-.5.57,2.224,2.224,0,0,1-.731.335,3.487,3.487,0,0,1-.9.11,4.389,4.389,0,0,1-.786-.07,2.869,2.869,0,0,1-.635-.18,2.358,2.358,0,0,1,.076-.42,1.454,1.454,0,0,1,.166-.38,2.96,2.96,0,0,0,.611.175,3.571,3.571,0,0,0,.651.065,2.352,2.352,0,0,0,.471-.046,1.234,1.234,0,0,0,.381-.14.72.72,0,0,0,.256-.256.775.775,0,0,0,.1-.4.581.581,0,0,0-.18-.466,1.788,1.788,0,0,0-.51-.286l-.32-.13Zm3.588.371a1.561,1.561,0,0,0,.341,1.011,1.239,1.239,0,0,0,.961.341,2.98,2.98,0,0,0,.761-.1,6.5,6.5,0,0,0,.651-.2,1.1,1.1,0,0,1,.13.36,2.217,2.217,0,0,1,.04.42,2.44,2.44,0,0,1-.365.13q-.216.061-.45.106c-.157.03-.316.054-.475.07a4.316,4.316,0,0,1-.441.025,2.8,2.8,0,0,1-1-.155,1.724,1.724,0,0,1-.66-.431,1.658,1.658,0,0,1-.37-.651,2.779,2.779,0,0,1-.115-.816,3.681,3.681,0,0,1,.2-1.206,3.409,3.409,0,0,1,.591-1.066,3.068,3.068,0,0,1,.921-.761,2.468,2.468,0,0,1,1.2-.29,1.574,1.574,0,0,1,1.046.325,1.077,1.077,0,0,1,.385.866,1.353,1.353,0,0,1-.215.766,1.847,1.847,0,0,1-.6.556,3.762,3.762,0,0,1-.9.381,8.389,8.389,0,0,1-1.126.24l-.521.08Zm.63-.84a5.741,5.741,0,0,0,.846-.2,2.3,2.3,0,0,0,.535-.25.84.84,0,0,0,.281-.286.686.686,0,0,0,.08-.33.486.486,0,0,0-.16-.376.664.664,0,0,0-.461-.145,1.237,1.237,0,0,0-.591.145,1.836,1.836,0,0,0-.485.381,2.315,2.315,0,0,0-.365.54,3.089,3.089,0,0,0-.23.625l.551-.1Z" transform="translate(470.445 -207.967)" fill="#4cbe42"/>
    </g>
  </g>
</svg>
