<svg xmlns="http://www.w3.org/2000/svg" width="191.25" height="48.812" viewBox="0 0 191.25 48.812">
  <g id="Group_56" data-name="Group 56" transform="translate(-890 -17)">
    <g id="Group_55" data-name="Group 55" transform="translate(890 17)">
      <path id="Path_1" data-name="Path 1" d="M417.682,85.01a4.843,4.843,0,0,0,1.391,3.109,4.776,4.776,0,0,0,3.3,1.022,11.479,11.479,0,0,0,3.066-.37,24.9,24.9,0,0,0,2.8-.979,4.76,4.76,0,0,1,.935,2.109,13.907,13.907,0,0,1,.239,2.631,11.582,11.582,0,0,1-1.717.63q-.979.283-2.022.478t-2.087.3a18.047,18.047,0,0,1-1.869.108,14.012,14.012,0,0,1-4.544-.652,8.335,8.335,0,0,1-3.13-1.848,7.243,7.243,0,0,1-1.827-2.914,11.714,11.714,0,0,1-.586-3.8,15.45,15.45,0,0,1,.913-5.217,15.035,15.035,0,0,1,2.587-4.587,12.9,12.9,0,0,1,4.086-3.261,11.683,11.683,0,0,1,5.413-1.239,9.848,9.848,0,0,1,2.673.347,6.109,6.109,0,0,1,2.151,1.065A5.113,5.113,0,0,1,430.9,73.7a5.388,5.388,0,0,1,.522,2.434,6.182,6.182,0,0,1-.913,3.392,8.132,8.132,0,0,1-2.434,2.434,14.31,14.31,0,0,1-3.456,1.63,24.343,24.343,0,0,1-4.022.935l-2.914.478Zm2.478-4.435a13.009,13.009,0,0,0,2.7-.674,6.221,6.221,0,0,0,1.652-.913,2.539,2.539,0,0,0,1.043-2.066,1.785,1.785,0,0,0-.543-1.347,2.018,2.018,0,0,0-1.457-.522,4.315,4.315,0,0,0-2.066.5,5.5,5.5,0,0,0-1.63,1.326,8.57,8.57,0,0,0-1.2,1.891,11.265,11.265,0,0,0-.761,2.152l2.261-.347Zm13.866.131q.479-2.74.717-4.847a31.27,31.27,0,0,0,.239-3.282v-.8a6.382,6.382,0,0,0-.044-.717,15.964,15.964,0,0,1,2.87-.26q.652,0,1.3.065t1.391.2q.086.348.174.825a8.732,8.732,0,0,1,.087,1.434c0,.26-.007.522-.021.783s-.051.579-.108.956a9.4,9.4,0,0,1,1.087-1.544,9.277,9.277,0,0,1,1.457-1.37,7.092,7.092,0,0,1,1.783-.979,6.052,6.052,0,0,1,2.152-.37,4.975,4.975,0,0,1,1.565.218,1.4,1.4,0,0,1,.044.347v.391a11.1,11.1,0,0,1-.3,2.521,7.576,7.576,0,0,1-.825,2.174c-.174-.03-.363-.058-.565-.087a5.641,5.641,0,0,0-.783-.044,6.246,6.246,0,0,0-2.935.609,5.127,5.127,0,0,0-1.891,1.717,9.274,9.274,0,0,0-1.174,2.673q-.435,1.565-.783,3.478l-1.609,8.74a20.872,20.872,0,0,1-3.174.26,17.31,17.31,0,0,1-3-.26L434.029,80.7ZM455.8,94.054q-4.478,0-6.587-2.348a9.277,9.277,0,0,1-2.109-6.435,18.294,18.294,0,0,1,.783-5.24,15.111,15.111,0,0,1,2.348-4.739,12.34,12.34,0,0,1,3.935-3.435,11.158,11.158,0,0,1,5.543-1.326q4.523,0,6.63,2.391a9.445,9.445,0,0,1,2.109,6.479,18.837,18.837,0,0,1-.761,5.3,14.534,14.534,0,0,1-2.326,4.7,11.908,11.908,0,0,1-3.957,3.369,11.7,11.7,0,0,1-5.608,1.282Zm.565-4.7a3.949,3.949,0,0,0,2.783-1.043A8.137,8.137,0,0,0,461,85.727a13.2,13.2,0,0,0,1.022-3.261,18,18,0,0,0,.3-3.109q0-4-3.261-4a3.716,3.716,0,0,0-2.739,1.087,8.707,8.707,0,0,0-1.783,2.652,13.365,13.365,0,0,0-.979,3.3,19.476,19.476,0,0,0-.283,3.087q0,3.869,3.087,3.87Zm27.908-1.174a7.43,7.43,0,0,1,.783,1.869,11,11,0,0,1,.3,2.87,12.383,12.383,0,0,1-2.956.869,20.9,20.9,0,0,1-3.435.262q-4.957,0-7.26-2.413a9.209,9.209,0,0,1-2.3-6.63,16.468,16.468,0,0,1,.848-5.152,14.727,14.727,0,0,1,2.5-4.652,13.135,13.135,0,0,1,4.065-3.369,11.573,11.573,0,0,1,5.587-1.3,18.584,18.584,0,0,1,2.87.218,13.168,13.168,0,0,1,2.652.7,10.856,10.856,0,0,1-.391,2.413,9.06,9.06,0,0,1-1.087,2.457,12.494,12.494,0,0,0-1.891-.609,9.13,9.13,0,0,0-2.066-.218,5.6,5.6,0,0,0-2.956.761,6.78,6.78,0,0,0-2.109,2,8.92,8.92,0,0,0-1.261,2.848,13.4,13.4,0,0,0-.413,3.348,4.591,4.591,0,0,0,1.218,3.521A4.358,4.358,0,0,0,480.06,89.1a10.256,10.256,0,0,0,1.891-.174,12.5,12.5,0,0,0,2.326-.74Zm9.257-3.174a4.843,4.843,0,0,0,1.391,3.109,4.776,4.776,0,0,0,3.3,1.022,11.479,11.479,0,0,0,3.066-.37,24.9,24.9,0,0,0,2.8-.979,4.762,4.762,0,0,1,.935,2.109,13.912,13.912,0,0,1,.239,2.631,11.58,11.58,0,0,1-1.717.63q-.979.283-2.022.478t-2.087.3a18.048,18.048,0,0,1-1.869.108,14.011,14.011,0,0,1-4.544-.653,8.335,8.335,0,0,1-3.13-1.848,7.241,7.241,0,0,1-1.827-2.914,11.714,11.714,0,0,1-.586-3.8,15.451,15.451,0,0,1,.913-5.217,15.035,15.035,0,0,1,2.588-4.587,12.9,12.9,0,0,1,4.086-3.261,11.683,11.683,0,0,1,5.413-1.239,9.847,9.847,0,0,1,2.673.347,6.109,6.109,0,0,1,2.152,1.065,5.114,5.114,0,0,1,1.434,1.761,5.387,5.387,0,0,1,.522,2.434,6.182,6.182,0,0,1-.913,3.392,8.131,8.131,0,0,1-2.434,2.434,14.309,14.309,0,0,1-3.456,1.63,24.343,24.343,0,0,1-4.022.935l-2.914.478Zm2.478-4.435a13.013,13.013,0,0,0,2.7-.674,6.222,6.222,0,0,0,1.652-.913,2.539,2.539,0,0,0,1.043-2.066,1.785,1.785,0,0,0-.543-1.347,2.018,2.018,0,0,0-1.457-.522,4.315,4.315,0,0,0-2.066.5,5.5,5.5,0,0,0-1.63,1.326,8.568,8.568,0,0,0-1.2,1.891,11.261,11.261,0,0,0-.761,2.152l2.261-.347Zm13.866.131q.479-2.74.717-4.847a31.247,31.247,0,0,0,.239-3.282v-.8a6.369,6.369,0,0,0-.044-.717,15.963,15.963,0,0,1,2.87-.26q.652,0,1.3.065t1.391.2q.086.348.174.825a8.731,8.731,0,0,1,.087,1.434c0,.26-.007.522-.021.783s-.051.579-.108.956a9.414,9.414,0,0,1,1.087-1.544,9.278,9.278,0,0,1,1.457-1.37,7.09,7.09,0,0,1,1.783-.979,6.052,6.052,0,0,1,2.152-.37,4.974,4.974,0,0,1,1.565.218,1.4,1.4,0,0,1,.044.347v.391a11.1,11.1,0,0,1-.3,2.521,7.572,7.572,0,0,1-.825,2.174c-.174-.03-.363-.058-.565-.087a5.643,5.643,0,0,0-.783-.044,6.245,6.245,0,0,0-2.935.609,5.128,5.128,0,0,0-1.891,1.717,9.275,9.275,0,0,0-1.174,2.673q-.435,1.565-.783,3.478l-1.609,8.74a20.872,20.872,0,0,1-3.174.26,17.311,17.311,0,0,1-3-.26L509.881,80.7ZM524,71.053a20.844,20.844,0,0,1,3.348-.26,18.073,18.073,0,0,1,3.043.26l1.174,19.652q1.7-3.565,2.848-6.2t1.935-4.521q.783-1.892,1.2-3.153t.63-2.13a9,9,0,0,0,.262-1.457q.044-.586.044-1.108a3.56,3.56,0,0,0-.044-.652c-.03-.145-.058-.29-.087-.435q.738-.131,1.565-.2t1.7-.065a19.423,19.423,0,0,1,3.261.26,2.887,2.887,0,0,1,.131.913,7.625,7.625,0,0,1-.2,1.63q-.2.892-.478,1.783t-.609,1.717q-.327.827-.586,1.478-1.131,2.7-3.153,6.892t-5.2,10.63a23.876,23.876,0,0,1-2.652,4.3,10.683,10.683,0,0,1-2.652,2.434,7.762,7.762,0,0,1-2.7,1.066,15.7,15.7,0,0,1-2.739.239,9.722,9.722,0,0,1-1.717-.131,15.128,15.128,0,0,1-1.588-.391,15.346,15.346,0,0,1,.347-2.391,7.8,7.8,0,0,1,.869-2.174,4.533,4.533,0,0,0,.935.283,4.818,4.818,0,0,0,.935.108,8.117,8.117,0,0,0,1.218-.108,3.792,3.792,0,0,0,1.5-.652,8.137,8.137,0,0,0,1.7-1.652,15.246,15.246,0,0,0,1.8-3.066l.218-.478a7.438,7.438,0,0,1-1.043.108q-.565.021-1.174.021h-1a5.158,5.158,0,0,1-1-.087L524.005,71.05Z" transform="translate(-353.755 -60.611)" fill="#343434"/>
      <path id="Path_2" data-name="Path 2" d="M46.33,41.261a3.784,3.784,0,1,0,4.193,3.223,3.771,3.771,0,0,0-4.193-3.223ZM.926.1A1.293,1.293,0,0,0,.207,2.045c.451.754,1.477.613,2.552.613A5.53,5.53,0,0,1,7.068,4.651c.963,1.017,1.32,2.9,1.766,4.541L12.869,24.1c.889,3.3,1.742,6.66,2.694,9.931A8.253,8.253,0,0,0,22.322,39.8c1.37.176,10.444.062,12.608.062H47.554a8.327,8.327,0,0,0,5.05-1.291A8.163,8.163,0,0,0,55.6,35.251c.318-.657.782-1.652.318-2.4a1.347,1.347,0,0,0-2.123-.1c-.392.478-.463,2.244-2.673,3.637-1.683,1.06-3.3.827-5.489.827H26.7c-2.033,0-4.074.253-5.737-.579a5.612,5.612,0,0,1-2.886-3.423c-1.818-6.608-3.579-13.186-5.363-19.807-.447-1.664-.911-3.285-1.347-4.964C10.529,5.232,9.868,2.5,6.353.824A8.032,8.032,0,0,0,3.937.085,11.575,11.575,0,0,0,.926.1ZM15.479,9.027a2.032,2.032,0,0,0-1.543,2.685c.832,3.327,1.928,7.068,2.824,10.42l2.812,10.356a3.9,3.9,0,0,0,1.883,2.569c1.174.692,2.353.515,3.853.515H47.4c1.54,0,2.45-.114,3.389-.977,1.011-.93,1.055-1.364,1.492-2.971q.31-1.137.62-2.27l-.063.231H25.4l-2.533-9.8h-.011l0-.032-.8-3.1.023-.007-.429-1.707H50.812L49.6,19.745l-21.725.038,1.278,4.95h25.01q.953-3.491,1.879-6.976c.326-1.236,1.82-6.1,1.716-7.01-.163-1.425-1.306-1.79-2.583-1.786H19.847a35.19,35.19,0,0,0-4.365.065Zm8.852,32.242a3.784,3.784,0,1,0,4.255,3.136,3.777,3.777,0,0,0-4.255-3.136Z" transform="translate(-0.007 0.008)" fill="#4cbe42" fill-rule="evenodd"/>
      <path id="Path_3" data-name="Path 3" d="M472.964,259.386a3.427,3.427,0,0,1-.394.6,3.359,3.359,0,0,1-.571.558,3.1,3.1,0,0,1-.727.415,2.28,2.28,0,0,1-.863.163,1.6,1.6,0,0,1-1.353-.592,2.576,2.576,0,0,1-.456-1.612,6.027,6.027,0,0,1,.3-1.883,4.986,4.986,0,0,1,.885-1.633,4.368,4.368,0,0,1,1.455-1.149,4.484,4.484,0,0,1,2.026-.435,6.981,6.981,0,0,1,1,.075,4.552,4.552,0,0,1,.89.211q-.312,1.713-.6,3.4t-.6,3.4a4.578,4.578,0,0,1-.544,1.564,3.421,3.421,0,0,1-.938,1.041,3.762,3.762,0,0,1-1.264.585,6.042,6.042,0,0,1-1.523.184,5.286,5.286,0,0,1-.925-.082,3.84,3.84,0,0,1-.762-.2,2.266,2.266,0,0,1,.3-1.088c.181.045.394.093.64.143a4.074,4.074,0,0,0,.8.075,4.392,4.392,0,0,0,1.088-.122,2.288,2.288,0,0,0,.844-.408,2.353,2.353,0,0,0,.619-.748,4.355,4.355,0,0,0,.4-1.156l.286-1.305Zm.707-4.352a3.013,3.013,0,0,0-.734-.082,2.411,2.411,0,0,0-1.223.312,2.965,2.965,0,0,0-.925.837,4.125,4.125,0,0,0-.592,1.183,4.414,4.414,0,0,0-.211,1.353,1.787,1.787,0,0,0,.245,1.012.788.788,0,0,0,.693.36,1.408,1.408,0,0,0,.823-.271,2.812,2.812,0,0,0,.707-.748,5.288,5.288,0,0,0,.558-1.122,9.293,9.293,0,0,0,.388-1.394l.271-1.441Zm1.748,5.93q.15-.856.333-1.808t.34-1.842q.156-.89.266-1.633a8.443,8.443,0,0,0,.108-1.177c0-.118,0-.211-.007-.278a2.218,2.218,0,0,0-.034-.252,2.264,2.264,0,0,1,.326-.034c.118,0,.226-.007.326-.007s.193,0,.307.007a1.93,1.93,0,0,1,.307.034,1.632,1.632,0,0,1,.041.238c.008.086.014.207.014.36a4.6,4.6,0,0,1-.041.612,4.21,4.21,0,0,1,.388-.463,2.963,2.963,0,0,1,.47-.394,2.194,2.194,0,0,1,.571-.278,2.241,2.241,0,0,1,.693-.1,2.081,2.081,0,0,1,.238.014.98.98,0,0,1,.211.041,3.6,3.6,0,0,1-.062.619,1.69,1.69,0,0,1-.211.592,1.519,1.519,0,0,0-.17-.027,2.065,2.065,0,0,0-.225-.014,1.857,1.857,0,0,0-1.475.652,4.2,4.2,0,0,0-.809,2.012l-.558,3.127a4.009,4.009,0,0,1-.558.041h-.34l-.449-.041Zm6.971.163a2.449,2.449,0,0,1-1.9-.7,2.83,2.83,0,0,1-.64-1.979,5.836,5.836,0,0,1,.231-1.571,4.759,4.759,0,0,1,.714-1.5A4.069,4.069,0,0,1,482,254.266a3.244,3.244,0,0,1,1.72-.442,2.458,2.458,0,0,1,1.918.707,2.857,2.857,0,0,1,.64,1.986,5.814,5.814,0,0,1-.231,1.578,4.843,4.843,0,0,1-.707,1.489,3.9,3.9,0,0,1-1.211,1.108A3.357,3.357,0,0,1,482.39,261.127Zm.136-1.074a1.753,1.753,0,0,0,1.1-.347,2.665,2.665,0,0,0,.741-.877,4.45,4.45,0,0,0,.422-1.149,5.473,5.473,0,0,0,.136-1.163,1.772,1.772,0,0,0-.347-1.183,1.224,1.224,0,0,0-.986-.408,1.711,1.711,0,0,0-1.088.353,2.786,2.786,0,0,0-.734.885,4.24,4.24,0,0,0-.415,1.149,5.668,5.668,0,0,0-.129,1.149,1.826,1.826,0,0,0,.333,1.183,1.183,1.183,0,0,0,.972.408Zm8.765-.312a1.645,1.645,0,0,1,.17.456,2.7,2.7,0,0,1,.062.6,4.081,4.081,0,0,1-.911.245,6,6,0,0,1-.938.082,2.94,2.94,0,0,1-2.2-.734,2.84,2.84,0,0,1-.707-2.053,5.183,5.183,0,0,1,.266-1.626,4.537,4.537,0,0,1,.789-1.455,4.025,4.025,0,0,1,1.278-1.041,3.69,3.69,0,0,1,1.734-.394,4.318,4.318,0,0,1,.856.082,5.11,5.11,0,0,1,.707.19,2.29,2.29,0,0,1-.108.564,2.17,2.17,0,0,1-.245.537,4.131,4.131,0,0,0-.592-.184,2.987,2.987,0,0,0-.674-.074,2.207,2.207,0,0,0-1.156.292,2.607,2.607,0,0,0-.816.762,3.315,3.315,0,0,0-.482,1.055,4.464,4.464,0,0,0-.156,1.156,1.83,1.83,0,0,0,.456,1.367,1.728,1.728,0,0,0,1.259.442,4.011,4.011,0,0,0,.7-.062,3.515,3.515,0,0,0,.714-.211Zm2.4-1.551a2.122,2.122,0,0,0,.463,1.374,1.684,1.684,0,0,0,1.3.463,4.05,4.05,0,0,0,1.034-.129,8.833,8.833,0,0,0,.885-.278,1.5,1.5,0,0,1,.177.489,3.025,3.025,0,0,1,.055.571,3.318,3.318,0,0,1-.5.177q-.293.082-.612.143c-.214.041-.429.073-.646.1a5.872,5.872,0,0,1-.6.034,3.8,3.8,0,0,1-1.353-.211,2.343,2.343,0,0,1-.9-.585,2.253,2.253,0,0,1-.5-.885,3.775,3.775,0,0,1-.156-1.108,5,5,0,0,1,.278-1.638,4.63,4.63,0,0,1,.8-1.448,4.171,4.171,0,0,1,1.252-1.034,3.353,3.353,0,0,1,1.626-.394,2.139,2.139,0,0,1,1.422.442,1.463,1.463,0,0,1,.523,1.177,1.839,1.839,0,0,1-.292,1.041,2.509,2.509,0,0,1-.809.755,5.11,5.11,0,0,1-1.218.518,11.4,11.4,0,0,1-1.53.326l-.707.108Zm.856-1.142a7.8,7.8,0,0,0,1.149-.278,3.122,3.122,0,0,0,.727-.34,1.139,1.139,0,0,0,.381-.388.932.932,0,0,0,.108-.449.661.661,0,0,0-.218-.51.9.9,0,0,0-.626-.2,1.68,1.68,0,0,0-.8.2,2.5,2.5,0,0,0-.659.517,3.145,3.145,0,0,0-.5.734,4.2,4.2,0,0,0-.312.849l.748-.136Zm3.842,3.916q.15-.856.333-1.808t.34-1.842q.156-.89.266-1.633a8.435,8.435,0,0,0,.108-1.177c0-.118,0-.211-.007-.278a2.22,2.22,0,0,0-.034-.252,2.264,2.264,0,0,1,.326-.034c.118,0,.226-.007.326-.007s.193,0,.307.007a1.932,1.932,0,0,1,.307.034,1.648,1.648,0,0,1,.041.238c.008.086.014.207.014.36a4.6,4.6,0,0,1-.041.612,4.182,4.182,0,0,1,.388-.463,2.963,2.963,0,0,1,.47-.394,2.2,2.2,0,0,1,.571-.278,2.242,2.242,0,0,1,.693-.1,2.081,2.081,0,0,1,.238.014.979.979,0,0,1,.211.041,3.6,3.6,0,0,1-.062.619,1.692,1.692,0,0,1-.211.592,1.516,1.516,0,0,0-.17-.027,2.066,2.066,0,0,0-.225-.014,1.857,1.857,0,0,0-1.475.652,4.2,4.2,0,0,0-.809,2.012l-.558,3.127a4.011,4.011,0,0,1-.558.041h-.34l-.449-.041Zm6.753-.681q.435-.939.775-1.714t.619-1.427q.279-.654.5-1.2c.149-.363.288-.707.415-1.034a2.634,2.634,0,0,0,.122-.422,1.784,1.784,0,0,0,.041-.312.7.7,0,0,0-.007-.108.541.541,0,0,1-.007-.082,3.726,3.726,0,0,1,.571-.041h.856a.487.487,0,0,1,.014.108v.108a2.1,2.1,0,0,1-.136.707c-.09.254-.19.508-.3.762q-.612,1.318-1.312,2.822t-1.571,3.326a8.531,8.531,0,0,1-.734,1.292,3.8,3.8,0,0,1-.7.762,1.958,1.958,0,0,1-.7.367,2.933,2.933,0,0,1-.762.1,3.152,3.152,0,0,1-.925-.136,2.867,2.867,0,0,1,.082-.571,1.331,1.331,0,0,1,.218-.475,2.428,2.428,0,0,0,.3.075,1.749,1.749,0,0,0,.326.034,1.554,1.554,0,0,0,.422-.062,1.111,1.111,0,0,0,.456-.293,3.469,3.469,0,0,0,.51-.681,9.777,9.777,0,0,0,.6-1.223,1.986,1.986,0,0,1-.231.014h-.449a1.069,1.069,0,0,1-.19-.014q-.232-1.74-.456-3.482t-.456-3.494c.127-.018.242-.032.347-.041s.219-.014.347-.014.249,0,.367.014.236.022.353.041l.693,6.3Zm7.36-6.3c.127-.018.249-.032.367-.041s.24-.014.367-.014a4.121,4.121,0,0,1,.707.055l.53,5.413,2.175-5.413a2.992,2.992,0,0,1,.326-.041c.118-.008.226-.014.326-.014.118,0,.231,0,.34.014s.218.022.326.041l.667,5.427,1.7-4.12a3.9,3.9,0,0,0,.225-.7,2.647,2.647,0,0,0,.062-.482v-.122c.108-.018.219-.032.333-.041s.233-.014.36-.014a4.406,4.406,0,0,1,.748.055v.055a1.923,1.923,0,0,1-.115.633,8.114,8.114,0,0,1-.36.837l-2.53,5.453c-.118.018-.242.032-.374.041s-.26.014-.388.014c-.108,0-.222,0-.34-.014a3,3,0,0,1-.326-.041l-.681-5.019-2.067,5.019c-.118.018-.242.032-.374.041s-.256.014-.374.014-.225,0-.347-.014a3.015,3.015,0,0,1-.333-.041l-.952-6.976Zm10.724,1.074h-.844a4.086,4.086,0,0,1,.034-.53,2.418,2.418,0,0,1,.143-.544h2.176l-1.223,6.976a2.378,2.378,0,0,1-.347.034c-.132,0-.248.007-.347.007s-.2,0-.312-.007a2.2,2.2,0,0,1-.312-.034Zm-.014-2.516a3.986,3.986,0,0,1,.068-.748,7.251,7.251,0,0,1,.177-.721c.127-.018.263-.032.408-.041s.271-.014.381-.014.233,0,.374.014.27.023.388.041a4.958,4.958,0,0,1-.082.755,6.364,6.364,0,0,1-.177.714,3.6,3.6,0,0,1-.408.034c-.145,0-.271.007-.381.007s-.222,0-.367-.007A2.849,2.849,0,0,1,523.213,252.544Zm3.122,2.516h-1.1a3.312,3.312,0,0,1,.041-.523,3.1,3.1,0,0,1,.149-.551h1.089c.045-.236.086-.475.122-.721a5.166,5.166,0,0,0,.055-.762v-.218a2.426,2.426,0,0,1,.652-.2,3.83,3.83,0,0,1,.653-.067q.013.122.021.245c0,.082.007.167.007.259a6.4,6.4,0,0,1-.108,1.048l-.082.422h1.755a3.518,3.518,0,0,1-.041.551,3.07,3.07,0,0,1-.136.523h-1.741l-.53,2.952q-.067.312-.122.645a3.756,3.756,0,0,0-.055.6.661.661,0,0,0,.211.564.928.928,0,0,0,.564.156,2.418,2.418,0,0,0,.422-.034,3.726,3.726,0,0,0,.381-.089,2.5,2.5,0,0,1,.068.3,2.128,2.128,0,0,1,.027.353v.2a1.59,1.59,0,0,1-.014.211,3.714,3.714,0,0,1-.463.1,3.654,3.654,0,0,1-.612.048,4.774,4.774,0,0,1-.8-.062,1.605,1.605,0,0,1-.619-.231,1.127,1.127,0,0,1-.4-.463,1.756,1.756,0,0,1-.143-.768,3.385,3.385,0,0,1,.048-.551c.032-.2.066-.4.1-.6l.6-3.331Zm4.156-1.264q.135-.761.218-1.312a6.743,6.743,0,0,0,.082-.986c0-.108,0-.2-.007-.259s-.011-.145-.021-.245a3.057,3.057,0,0,1,.367-.041c.145-.008.267-.014.367-.014s.193,0,.307.014a2.5,2.5,0,0,1,.307.041,3.117,3.117,0,0,1,.041.5c0,.1-.007.219-.021.36s-.03.288-.048.442-.041.312-.068.475-.055.318-.082.463q-.1.462-.177.918c-.055.3-.108.61-.163.918a3.524,3.524,0,0,1,.979-.87,2.549,2.549,0,0,1,1.36-.367,1.842,1.842,0,0,1,1.3.435,1.754,1.754,0,0,1,.47,1.346,4.056,4.056,0,0,1-.027.449q-.027.245-.068.489l-.775,4.406a2.368,2.368,0,0,1-.347.034c-.131,0-.247.007-.347.007s-.211,0-.333-.007a1.973,1.973,0,0,1-.319-.034q.19-1.061.367-2.094t.367-2.094l.055-.408a2.7,2.7,0,0,0,.027-.353.964.964,0,0,0-.278-.762,1.042,1.042,0,0,0-.714-.245,1.648,1.648,0,0,0-.64.136,1.707,1.707,0,0,0-.619.47,3.424,3.424,0,0,0-.537.9,6.313,6.313,0,0,0-.394,1.422q-.15.776-.278,1.523t-.266,1.509a3.553,3.553,0,0,1-.394.034c-.136,0-.267.007-.394.007-.045,0-.126,0-.245-.007a1.938,1.938,0,0,1-.312-.034l1.264-7.168Zm10.5,4.393a2.122,2.122,0,0,0,.463,1.374,1.684,1.684,0,0,0,1.305.463,4.05,4.05,0,0,0,1.034-.129,8.83,8.83,0,0,0,.884-.278,1.5,1.5,0,0,1,.177.489,3.015,3.015,0,0,1,.055.571,3.326,3.326,0,0,1-.5.177q-.293.082-.612.143c-.214.041-.429.073-.645.1a5.873,5.873,0,0,1-.6.034,3.8,3.8,0,0,1-1.353-.211,2.341,2.341,0,0,1-.9-.585,2.253,2.253,0,0,1-.5-.884,3.777,3.777,0,0,1-.156-1.108,5,5,0,0,1,.278-1.638,4.631,4.631,0,0,1,.8-1.448,4.169,4.169,0,0,1,1.251-1.034,3.354,3.354,0,0,1,1.626-.394,2.139,2.139,0,0,1,1.422.442,1.463,1.463,0,0,1,.523,1.177,1.838,1.838,0,0,1-.292,1.041,2.507,2.507,0,0,1-.809.755,5.109,5.109,0,0,1-1.218.518,11.4,11.4,0,0,1-1.53.326l-.707.108Zm.856-1.142a7.8,7.8,0,0,0,1.149-.278,3.119,3.119,0,0,0,.727-.34,1.141,1.141,0,0,0,.381-.388.932.932,0,0,0,.108-.449.66.66,0,0,0-.218-.511.9.9,0,0,0-.626-.2,1.68,1.68,0,0,0-.8.2,2.5,2.5,0,0,0-.66.517,3.147,3.147,0,0,0-.5.734,4.2,4.2,0,0,0-.312.849l.748-.136Zm8.861-2.026a2.174,2.174,0,0,0-.34-.055c-.118-.008-.249-.014-.394-.014a2.382,2.382,0,0,0-1.218.312,3.06,3.06,0,0,0-.925.837,3.923,3.923,0,0,0-.592,1.183,4.537,4.537,0,0,0-.2,1.353,1.877,1.877,0,0,0,.231,1.012.769.769,0,0,0,.693.36,1.417,1.417,0,0,0,.816-.271,2.823,2.823,0,0,0,.721-.755,5.169,5.169,0,0,0,.564-1.129,8.449,8.449,0,0,0,.374-1.381l.271-1.455Zm.775,2.978q-.15.816-.238,1.4a6.92,6.92,0,0,0-.089,1.02c0,.118,0,.211.007.278a2.246,2.246,0,0,0,.034.252,2.993,2.993,0,0,1-.326.041c-.118.008-.226.014-.326.014s-.19,0-.3-.014a3,3,0,0,1-.312-.041,3.026,3.026,0,0,1-.041-.307c-.008-.1-.014-.233-.014-.388a3.329,3.329,0,0,1,.034-.408c.022-.173.048-.326.074-.463a3.415,3.415,0,0,1-.394.6,3.539,3.539,0,0,1-.564.558,2.926,2.926,0,0,1-.721.415,2.278,2.278,0,0,1-.863.163,1.6,1.6,0,0,1-1.353-.592,2.576,2.576,0,0,1-.456-1.612,6.028,6.028,0,0,1,.3-1.883,4.986,4.986,0,0,1,.885-1.633,4.37,4.37,0,0,1,1.455-1.149,4.484,4.484,0,0,1,2.026-.435,6.693,6.693,0,0,1,.986.075,4.616,4.616,0,0,1,.877.211l-.681,3.89Zm2.836-.312a4.7,4.7,0,0,1-.436-.2,1.742,1.742,0,0,1-.422-.312,1.573,1.573,0,0,1-.319-.482,1.736,1.736,0,0,1-.129-.7,1.957,1.957,0,0,1,.2-.9,1.982,1.982,0,0,1,.571-.681,2.69,2.69,0,0,1,.877-.429,4.029,4.029,0,0,1,1.136-.149,4.47,4.47,0,0,1,1.06.122,3.537,3.537,0,0,1,.789.271,3.385,3.385,0,0,1-.394,1.02,4.292,4.292,0,0,0-.64-.225,3.165,3.165,0,0,0-.87-.115,2.064,2.064,0,0,0-.972.2.731.731,0,0,0-.388.707.769.769,0,0,0,.184.523,1.73,1.73,0,0,0,.66.4l.3.136c.172.082.352.167.537.259a2.236,2.236,0,0,1,.5.333,1.587,1.587,0,0,1,.367.477,1.487,1.487,0,0,1,.144.686,2.4,2.4,0,0,1-.245,1.122,2.182,2.182,0,0,1-.674.775,3.021,3.021,0,0,1-.993.456,4.737,4.737,0,0,1-1.218.149,5.961,5.961,0,0,1-1.067-.1,3.9,3.9,0,0,1-.863-.245,3.2,3.2,0,0,1,.1-.571,1.975,1.975,0,0,1,.225-.516,4.022,4.022,0,0,0,.83.238,4.853,4.853,0,0,0,.885.089,3.2,3.2,0,0,0,.64-.062,1.676,1.676,0,0,0,.517-.19.979.979,0,0,0,.347-.347,1.052,1.052,0,0,0,.13-.544.79.79,0,0,0-.245-.633,2.429,2.429,0,0,0-.693-.388l-.435-.177Zm4.875.5a2.121,2.121,0,0,0,.463,1.374,1.684,1.684,0,0,0,1.305.463A4.05,4.05,0,0,0,562,259.9a8.843,8.843,0,0,0,.885-.278,1.5,1.5,0,0,1,.177.489,3.015,3.015,0,0,1,.055.571,3.317,3.317,0,0,1-.5.177q-.293.082-.612.143c-.214.041-.429.073-.645.1a5.863,5.863,0,0,1-.6.034,3.8,3.8,0,0,1-1.353-.211,2.342,2.342,0,0,1-.9-.585,2.252,2.252,0,0,1-.5-.884,3.774,3.774,0,0,1-.156-1.108,5,5,0,0,1,.278-1.638,4.633,4.633,0,0,1,.8-1.448,4.169,4.169,0,0,1,1.252-1.034,3.354,3.354,0,0,1,1.626-.394,2.139,2.139,0,0,1,1.422.442,1.463,1.463,0,0,1,.523,1.177,1.839,1.839,0,0,1-.292,1.041,2.509,2.509,0,0,1-.808.755,5.113,5.113,0,0,1-1.218.518,11.4,11.4,0,0,1-1.53.326l-.707.108Zm.856-1.142a7.8,7.8,0,0,0,1.149-.278,3.122,3.122,0,0,0,.727-.34,1.14,1.14,0,0,0,.381-.388.931.931,0,0,0,.108-.449.66.66,0,0,0-.218-.51.9.9,0,0,0-.626-.2,1.68,1.68,0,0,0-.8.2,2.494,2.494,0,0,0-.659.517,3.148,3.148,0,0,0-.5.734,4.2,4.2,0,0,0-.312.849l.748-.136Z" transform="translate(-402.18 -215.651)" fill="#4cbe42"/>
    </g>
  </g>
</svg>
