<svg xmlns="http://www.w3.org/2000/svg" width="60" height="60" viewBox="0 0 60 60">
  <g id="Group_9686" data-name="Group 9686" transform="translate(21482.086 -886.647)">
    <g id="Group_9685" data-name="Group 9685" transform="translate(-21482.086 886.647)">
      <g id="Group_9684" data-name="Group 9684" transform="translate(0 0)">
        <g id="Group_9683" data-name="Group 9683">
          <g id="Group_9682" data-name="Group 9682">
            <circle id="Ellipse_44" data-name="Ellipse 44" cx="30" cy="30" r="30" fill="#13cf13"/>
            <path id="Subtraction_1" data-name="Subtraction 1" d="M8.152,44.636h0v-7.95a21.587,21.587,0,0,1-3.373-3.193A20.56,20.56,0,0,1,2.21,29.678a19.472,19.472,0,0,1-.471-17.057,20.277,20.277,0,0,1,2.039-3.51,21.2,21.2,0,0,1,2.7-3.059A22.036,22.036,0,0,1,9.758,3.529a22.671,22.671,0,0,1,3.759-1.905,23.662,23.662,0,0,1,17.23,0,22.667,22.667,0,0,1,3.759,1.905,22.035,22.035,0,0,1,3.272,2.524,21.2,21.2,0,0,1,2.706,3.059,20.276,20.276,0,0,1,2.041,3.51,19.471,19.471,0,0,1,0,16.087,20.277,20.277,0,0,1-2.041,3.51,21.2,21.2,0,0,1-2.706,3.058A22.036,22.036,0,0,1,34.5,37.8a22.666,22.666,0,0,1-3.756,1.9,23.348,23.348,0,0,1-8.615,1.624,23.63,23.63,0,0,1-6.552-.919L8.153,44.63ZM18.871,21.719h0l5.384,5.658,11.259-12-10.19,5.556L19.89,15.377l-11.323,12,10.3-5.658Z" transform="translate(7.779 8.978)" fill="#fff"/>
          </g>
        </g>
      </g>
    </g>
  </g>
</svg>
