<svg xmlns="http://www.w3.org/2000/svg" width="36" height="36" viewBox="0 0 36 36">
  <path id="linkedin-icon" d="M25.025,7.025a18,18,0,1,0,18,18A18,18,0,0,0,25.025,7.025Zm-4.8,26.7H16.27V20.959h3.952Zm-1.995-14.44a2.356,2.356,0,1,1,2.337-2.356A2.347,2.347,0,0,1,18.228,19.287Zm16.805,14.44H31.1v-6.7c0-1.838-.7-2.864-2.152-2.864-1.582,0-2.408,1.069-2.408,2.864v6.7h-3.79V20.959h3.79v1.72a4.453,4.453,0,0,1,3.848-2.109c2.707,0,4.646,1.653,4.646,5.073v8.085Z" transform="translate(-7.025 -7.025)"/>
</svg>
